Patient4_TMGait_0pt2_01_right_16_EMG.mot
version=1
nRows=40
nColumns=33
inDegrees=no
endheader
time	1LAddLong	2LGlutMax	3LGlutMed	4LIliopsoas	5LSemiMemb	6LBicFemLong	7LRecFem	8LVastMed	9LVastLat	10LGasMed	11LTibAnt	12lTibPost	13LPeroneusLong	14LSol	15LExtDigLong	16LFlexDigLong	17RAddLong	18RGlutMax	19RGlutMed	20RIliopsoas	21RSemiMemb	22RBicFemLong	23RRecFem	24RVastMed	25RVastLat	26RGasMed	27RTibAnt	28RTibPost	29RPeroneusLong	30RSol	31RExtDigLong	32RFlexDigLong
35.44	0.005341	0.10773	0.065155	0.016785	-0.067291	0.042419	0.059814	0.029449	-0.13382	-0.012665	0.026093	0.002441	-0.41718	0.035858	0.14954	0.000458	-0.037842	-0.6398	0.56549	0.033569	0.027161	0.11337	0.093384	-0.019379	0.001068	-0.01709	0.014343	-0.064087	0.066376	0.052032	-0.006104	-0.004425
35.441	-0.090027	0.048523	0.020905	0.01297	-0.063934	-0.22385	0.003204	0.029602	-0.090942	0.10086	0.060425	-0.002289	-1.1194	-0.093994	0.14969	-0.005188	-0.037079	-0.65582	0.58502	0.018005	0.03479	0.098572	0.066681	0.041504	-0.007477	-0.01297	-0.022888	0.10712	-0.10635	-0.083466	-0.00412	-0.005493
35.442	-0.045929	0.066986	0.063782	0.009613	-0.028381	-0.50919	0.043793	0.032806	0.054474	0.40817	0.042267	-0.010223	0.15427	-0.25757	0.093689	0.005188	0.001831	-0.56351	0.5043	0.005188	0.033569	0.086975	0.095215	0.04715	-0.011444	-0.008392	-0.00946	0.016479	-0.19302	0.24536	0.007324	0.003357
35.443	-0.027924	0.024414	0.016479	-0.004425	0.009918	-0.48874	0.094299	0.021057	0.20783	0.73914	-0.023651	-0.018158	0.64621	-0.32593	0.17136	0.014191	0.025177	-0.4924	0.35782	0.009613	0.019684	0.093384	0.14603	0.021667	-0.018158	0.005951	-0.016785	0.046387	-0.087433	0.018768	-0.001221	-0.006104
35.444	-0.001526	0.016785	-0.065613	-0.007629	0.035858	-0.28976	0.094604	0.007324	0.30426	0.72739	-0.054016	-0.022583	0.7727	-0.40298	0.19028	0.014648	0.027771	-0.28183	0.36758	-0.000763	0.018921	0.073395	0.13931	-0.001678	-0.02655	0.014191	-0.010376	-0.073547	-0.11841	0.054474	-0.001068	-0.008698
35.445	0.007782	0.037537	-0.074921	0.021515	0.04776	-0.12955	-0.028534	-0.001984	0.42984	0.58365	-0.015106	-0.034637	0.37415	-0.46692	0.053406	0.021057	0.033417	-0.069275	0.4303	-0.001678	0.007629	0.066376	0.13382	0.021515	-0.026855	0.026245	0.013123	0.002289	-0.41412	0.11108	-0.003967	-0.001373
35.446	0.015717	0.033112	-0.11978	0.002747	0.019379	-0.046997	-0.10971	-0.015564	0.38986	0.26154	0.011749	-0.022278	-0.52429	-0.3743	-0.050354	0.00824	0.032959	0.12817	0.73257	-0.0383	0.010223	0.030212	0.16953	0.00061	-0.026093	0.026855	0.010834	0.037689	-0.86182	-0.05661	-0.002747	-0.003815
35.447	0.00885	-0.021362	-0.013428	-0.012665	-0.009155	0.022278	-0.17471	-0.001678	0.31677	-0.70221	-0.013428	0.013275	-0.045013	-0.10239	-0.10849	0.010071	0.029755	0.22476	0.61356	-0.06012	0.006866	0.021362	0.18021	0.009918	-0.0177	0.027161	0.025177	-0.011292	-0.44098	-0.18082	-0.002136	-0.00824
35.448	0.015106	-0.060577	0.032501	-0.007935	-0.00473	-0.00412	-0.11673	-0.001221	0.35309	-0.55618	-0.010681	0.031281	-0.23727	0.024261	-0.11643	-0.02533	0.017548	0.36407	0.45273	-0.091705	0.003357	0.030823	0.12451	0.010681	-0.028381	0.00061	0.015717	-0.63324	0.35645	-0.27008	-0.004578	-0.00885
35.449	0.010376	-0.046387	-0.085754	0.008392	0.010376	-0.024567	-0.14282	0.006409	0.21729	-0.29129	0.026245	0.039368	-0.6398	0.12741	-0.068665	-0.035706	0.000916	0.48569	0.60593	-0.056305	0.003967	0.02655	0.092926	0.029144	-0.006561	-0.019226	-0.037384	-0.20783	1.1031	-0.48981	-0.006256	-0.005493
35.45	0.008698	0.015106	0.024719	-0.009766	0.034943	0.021515	-0.044861	-0.009155	0.12283	-0.19272	0.008087	0.026398	-0.65475	0.17044	0.019073	0.040131	0.001068	0.62164	0.80429	-0.075684	0.007935	0.034637	0.14435	0.029449	-0.029144	-0.013275	-0.082245	0.45059	0.70252	-0.17685	-0.003662	-0.001373
35.451	0.008545	0.03891	-0.011597	-0.011444	0.037384	0.12817	0.11353	-0.022583	-0.15381	-0.09079	-0.027771	-0.008392	-0.014801	0.11902	-0.067139	0.093231	-0.003204	0.68298	0.76614	0.023041	0.005646	0.023499	0.13229	0.052338	-0.00351	-0.01709	-0.066833	0.2063	0.077515	0.12116	-0.009613	0.001526
35.452	-0.001831	0.063782	-0.1236	0.019226	0.016327	0.30594	0.10788	-0.028992	-0.35202	0.018005	-0.027008	-0.005646	-0.089722	0.10468	-0.040131	-0.10956	0.009918	0.71075	0.61295	-0.020752	0.011902	0.027618	0.1033	0.011749	-0.023041	0.003967	0.00061	0.088806	0.013275	0.26032	-0.008392	-0.005493
35.453	-0.003357	0.085297	-0.10086	0.008087	0.012207	0.42587	0.08316	-0.011444	-0.45959	-0.1622	-0.022583	-0.011749	-0.1828	0.11383	0.019379	0.038605	0.006409	0.7692	0.56656	-0.067596	0.009918	0.020905	0.12466	0.045471	-0.020752	0.018921	0.0383	0.011139	0.23041	0.27649	-0.00351	-0.009155
35.454	0.008087	0.047302	-0.14694	0.020599	-0.003052	0.34332	0.024567	-0.012665	-0.35095	-0.23651	-0.010071	-0.016937	-0.10132	0.27115	0.03418	0.22797	0.00412	0.80978	0.58502	-0.12756	0.016327	0.000458	0.1355	0.030212	-0.030518	0.023346	0.041199	-0.007172	-0.074768	0.055389	-0.001373	0.001373
35.455	0.006409	0.025177	-0.026245	0.029755	-0.013733	0.08316	0.1033	-0.011597	-0.22644	-0.18738	-0.010529	-0.012665	0.038757	0.21149	-0.011139	-0.053558	0.015259	0.85571	0.76843	-0.067291	0.010223	-0.010986	0.14908	-0.008545	-0.020905	0.0177	0.017853	-0.078278	-0.40939	-0.036469	0.003967	-0.002441
35.456	0.00885	0.027161	0.051117	0.043182	-0.022125	0.12497	0.084076	-0.001373	-0.16312	-0.20462	-0.01236	-0.011902	0.26169	-0.040588	-0.039978	-0.1358	0.001984	0.89508	0.6575	-0.002899	0.006714	-0.007019	0.14267	0.032501	-0.022736	0.005188	-0.014343	-0.033722	-0.23056	-0.22888	-0.003357	-0.00946
35.457	0.028229	0.052185	0.22812	0.025787	-0.002747	0.14358	0.050354	0.006256	-0.025482	-0.16495	-0.005798	-0.014496	0.34592	-0.067749	-0.02655	-0.039215	-0.003815	0.93445	0.84763	0.043945	0.010834	-0.022583	0.11231	0.001373	-0.021057	-0.008545	0.068665	-0.014648	-0.42282	-0.22369	-0.005646	-0.004425
35.458	0.031891	0.056458	0.19928	-0.011139	0.01236	0.11856	-0.016632	0.002441	0.061493	-0.10941	-0.02533	-0.01358	0.044403	0.091095	0.003357	-0.000916	-0.014496	0.93338	1.0158	0.024414	0.007629	-0.031281	0.1355	0.005798	-0.03418	-0.002136	0.088654	-0.022278	0.55969	0.17487	-0.001221	-0.004578
35.459	0.012512	0.034943	0.10239	-0.017853	0.016327	0.049591	-0.031738	0.005646	0.016479	-0.08255	-0.023651	-0.022736	0.10468	0.19852	0.046539	-0.020599	-0.019836	0.84305	0.54367	0.10651	0.001831	-0.028992	0.088043	0.024872	-0.02243	0.001831	-0.001526	-0.30258	1.201	0.49957	-0.003357	-0.00412
35.46	0.008545	0.045166	0.16007	-0.012817	0.009613	0.12299	-0.032043	0.012665	-0.011597	-0.032043	0.007629	-0.025177	-0.084839	0.11139	0.003967	-0.009155	-0.013428	0.82153	0.50613	0.1831	0.00473	-0.055542	0.066223	-0.013428	-0.007935	-0.008698	-0.10727	-0.30563	1.0585	0.28351	-0.002441	-0.006256
35.461	0.010376	0.050201	0.045929	-0.016479	0.006409	0.053711	-0.091248	0.019684	-0.019836	-0.005493	0.040436	-0.024872	-0.016632	0.087433	0.040131	-0.011292	0.00412	0.7222	0.66345	0.090637	0.005798	-0.035248	0.1001	0.01709	-0.025482	-0.003967	-0.088806	0.29968	0.23651	0.049591	-0.001221	-0.01709
35.462	0.017242	0.05249	-0.067596	0.02243	0.023041	-0.21057	-0.20218	0.024872	0.10727	0.029755	-0.070953	-0.014954	0.23071	0.1181	-0.075073	-0.002899	0.049438	0.72342	0.49088	0.015564	-0.000458	-0.050201	0.11292	0.00946	-0.020142	0.003204	-0.066528	0.31006	-0.004883	0.20126	-0.001221	-0.021362
35.463	0.020447	0.036469	-0.047913	0.022736	0.018005	-0.083771	-0.24536	0.025635	0.18097	0.046387	-0.043945	-0.023956	0.43472	-0.023804	-0.1088	-0.000305	0.042877	0.68863	0.45319	0.008698	-0.001068	-0.066376	0.13458	0.030212	-0.022278	-0.005341	-0.028687	0.058441	-0.1329	0.24002	-0.002289	-0.023651
35.464	0.005646	0.036163	-0.02182	0.010376	0	0.008087	-0.049438	0.009308	0.23056	0.039825	-0.003662	-0.020752	0.30045	0.23575	0.032654	0.005188	0.047455	0.62317	0.84518	0.00885	-0.006409	-0.067902	0.14832	-0.044861	-0.036163	-0.005951	0.008087	0.048981	-0.027466	0.29022	-0.001984	-0.010376
35.465	-0.016022	0.051117	0.050049	0.00824	-0.000458	-0.11185	0.047455	0.006714	0.30045	0.058441	0.008392	-0.027313	0.41672	0.22293	0.077057	-0.001984	0.047455	0.61722	0.905	-0.014038	-0.010071	-0.099792	0.10849	-0.049286	-0.031738	0.000916	-0.002289	0.011292	0.18875	0.14099	-0.003815	-0.010681
35.466	-0.019684	0.003204	-0.028687	-0.00946	0.00824	-0.15243	0.049438	-0.02121	0.37338	0.06134	-0.011749	-0.030518	0.4512	0.2565	0.159	-0.015564	-0.00412	0.46677	0.61645	0.045929	-0.014038	-0.077515	0.15152	-0.001373	0.002594	-0.006409	-0.030365	-0.014038	0.18341	0.097656	-0.00061	-0.002136
35.467	-0.007019	0.004272	-0.12283	0.004578	0.011902	-0.013275	0.063934	-0.028687	0.19547	0.041504	0.001068	-0.025482	-0.14328	0.041656	0.096588	-0.001984	-0.023499	0.38315	0.61722	0.042419	-0.016632	-0.090027	0.13367	0.001373	-0.018921	0.000305	-0.050659	-0.012512	0.16129	0.009308	-0.002747	-0.011292
35.468	-0.01236	0.016479	-0.16357	0.001373	0.023346	-0.23392	0.035858	-0.017853	-0.055847	-0.1178	0.010223	-0.042725	-0.56549	-0.055847	0.037384	-0.011139	-0.010223	0.38696	0.90866	-0.015411	-0.020599	-0.08194	0.13412	-0.033722	-0.009613	0.007782	-0.046082	-0.0177	0.077972	-0.19608	-0.000763	-0.018005
35.469	0.00061	0.070496	-0.19501	0.008087	0.024261	-0.21896	0.018768	-0.009613	-0.39063	-0.023956	0.009766	-0.039368	-0.0354	0.05127	-0.14923	-0.011292	0.013885	0.31128	0.88867	-0.021667	-0.034485	-0.10422	0.14633	-0.037231	0.00351	0.003967	-0.014648	-0.02182	0.014496	-0.2652	-0.002747	-0.010376
35.47	0.007324	0.07309	-0.067291	-0.009918	0.012665	-0.030975	0.018158	0.005493	-0.39825	-0.032959	-0.047302	-0.042267	0.1471	-0.040131	-0.17899	-0.006256	0.037537	0.31281	0.61447	0.01236	-0.028992	-0.10437	0.09903	-0.018005	-0.001678	0.007782	-0.03891	-0.022888	-0.051117	-0.11719	-0.003815	-0.001984
35.471	0.008087	-0.012817	0.096741	0.019531	0.017242	-0.16769	0.10834	-0.004883	-0.15411	0.13275	-0.041351	-0.03952	0.24521	-0.089264	-0.13184	-0.013123	0.023804	0.24826	0.39673	0.064392	-0.027771	-0.087585	0.085297	-0.006866	0.02655	0.005341	-0.022736	-0.019073	-0.036163	0.10269	-0.004272	-0.008545
35.472	0.024414	-0.023956	0.11887	0.005493	0.014801	-0.11978	0.034637	-0.002441	0.077515	0.22247	0.042725	-0.02655	-0.12955	0.007629	-0.030518	-0.017853	-0.015259	0.24078	0.4631	0.027313	-0.018768	-0.075378	0.089569	-0.001678	0.031891	0.010376	-0.000763	-0.016479	0.006714	-0.098419	-0.00351	-0.010681
35.473	0.022278	0.011292	0.080261	0.011749	0.000458	0.037689	-0.023346	0.018005	0.2272	0.28503	0.038605	-0.02533	0.12466	-0.028687	-0.023346	-0.006866	-0.009766	0.26474	0.61981	-0.062866	-0.010986	-0.065613	0.089264	0.001526	0.023804	0.015869	-0.004425	-0.016327	0.04364	-0.13825	-0.002594	-0.01358
35.474	0.023651	0.046082	0.15656	0.008392	-0.005493	0.036011	-0.027161	0.024719	0.30899	0.14801	-0.027924	-0.032501	0.49606	0.012512	0.18707	-0.019531	-0.015564	0.23071	0.74631	-0.10757	-0.023041	-0.081482	0.10025	0.04364	0.014496	0.018921	-0.09552	-0.015564	-0.030365	-0.13214	0.004425	-0.019226
35.475	0.020294	-0.027924	0.023804	0.012054	0.003662	-0.061646	-0.007477	0.001221	0.36987	-0.069885	0.029297	-0.030823	-0.4747	-0.16464	0.18601	-0.004272	-0.013885	0.17258	0.73227	0.013123	-0.027466	-0.04715	0.13489	0.016479	0.015869	0.028076	-0.10849	-0.018921	-0.18906	-0.058441	0.007172	-0.020142
35.476	0.025177	0.026398	-0.085602	0.017242	0.020447	-0.069122	-0.00885	-0.002747	0.33875	0.005646	0.027161	-0.032654	-0.29098	-0.18707	0.13092	-0.010376	0.040894	0.17105	0.77377	0.059052	-0.016937	-0.035858	0.10559	0.081329	0.019226	0.022888	-0.11704	-0.016022	-0.14755	-0.13382	-0.002899	-0.017395
35.477	0.026855	-0.031586	-0.18173	0.011139	0.018311	-0.13763	-0.088196	-0.002594	0.1384	0.56366	0.005951	-0.035858	-0.70374	-0.03418	0.070343	0.010071	0.069885	0.19211	0.68085	-0.009918	0.000916	-0.034485	0.14328	0.06424	0.015564	0.021515	0.020447	-0.011292	0.01358	-0.19165	-0.001984	-0.014496
35.478	0.009918	0.010223	0.028839	-0.00061	0.009766	-0.072174	-0.094299	0.006866	-0.17639	0.61951	-0.010529	-0.039063	-0.75867	-0.11169	-0.090027	-0.005341	0.059509	0.24841	0.87311	0.033722	0.005646	-0.033112	0.13855	0.090637	0.025482	0.03067	0.076447	-0.014343	0.13809	-0.15961	-0.007935	-0.018616
35.479	-0.003204	-0.00946	0.12024	0.010986	0.002899	0.049286	-0.079041	0.011749	-0.43518	0.16953	-0.023346	-0.040741	-0.44723	-0.017853	-0.10834	0.003204	0.043335	0.21698	1.0249	0.033569	0.011292	-0.029602	0.13763	0.06897	0.031433	0.016327	0.065613	-0.013733	0.20309	-0.13107	-0.001831	-0.023499
